<svg width="44" height="24" viewBox="0 0 44 24" fill="none" xmlns="http://www.w3.org/2000/svg">
<path d="M3.09289 23.4811H0.181641V7.58919H2.96631V10.1838H3.09289C3.38823 9.34054 3.98946 8.62703 4.8966 8.04324C5.82481 7.43783 6.73195 7.13514 7.61798 7.13514C8.46183 7.13514 9.17908 7.26487 9.76978 7.52433L8.88374 10.4108C8.52512 10.2595 7.95553 10.1838 7.17497 10.1838C6.07797 10.1838 5.11811 10.6378 4.29536 11.5459C3.49372 12.4541 3.09289 13.5135 3.09289 14.7243V23.4811ZM8.90748 18.6162C8.90748 19.3946 9.22392 20.0432 9.8568 20.5622C10.5108 21.0811 11.2702 21.3405 12.1352 21.3405C13.3587 21.3405 14.4452 20.8757 15.3945 19.9459C16.3649 19.0162 16.8501 17.9243 16.8501 16.6703C15.943 15.9351 14.6772 15.5676 13.0528 15.5676C11.8715 15.5676 10.8799 15.8595 10.0783 16.4432C9.29774 17.027 8.90748 17.7513 8.90748 18.6162ZM12.6731 7.07027C14.8249 7.07027 16.5231 7.66486 17.7678 8.85406C19.0125 10.0216 19.6348 11.6324 19.6348 13.6865V23.4811H16.8501V21.2757H16.7235C15.5211 23.0919 13.9178 24 11.9137 24C10.2049 24 8.77036 23.4811 7.61007 22.4432C6.47089 21.4054 5.9013 20.1081 5.9013 18.5513C5.9013 16.9081 6.50253 15.6 7.705 14.627C8.92858 13.6541 10.553 13.1676 12.5782 13.1676C14.3081 13.1676 15.732 13.4919 16.8501 14.1405V13.4595C16.8501 12.4216 16.4493 11.5459 15.6477 10.8324C14.846 10.0973 13.9072 9.72973 12.8313 9.72973C11.207 9.72973 9.92008 10.4324 8.97077 11.8378L6.4076 10.1838C7.82104 8.10811 9.90954 7.07027 12.6731 7.07027ZM25.798 0C26.8527 0 27.7178 0.183783 28.3928 0.551353L27.6017 3.17838C27.0954 2.91892 26.5258 2.78919 25.8929 2.78919C25.1755 2.78919 24.585 3.04865 24.1208 3.56757C23.6778 4.06486 23.4563 4.73514 23.4563 5.57838V7.58919H27.5067V10.3135H23.4563V23.4811H20.545V10.3135H17.6338V7.58919H20.545V5.28649C20.545 3.7081 21.0303 2.43243 22.0007 1.45946C22.9922 0.486488 24.258 0 25.798 0ZM24.1893 15.5351C24.1893 13.0919 24.9382 11.0703 26.4359 9.47027C27.9549 7.87028 29.8642 7.07027 32.1635 7.07027C34.4631 7.07027 36.3617 7.87028 37.8594 9.47027C39.3783 11.0703 40.1378 13.0919 40.1378 15.5351C40.1378 18 39.3783 20.0216 37.8594 21.6C36.3617 23.2 34.4631 24 32.1635 24C29.8642 24 27.9549 23.2 26.4359 21.6C24.9382 20 24.1893 17.9784 24.1893 15.5351ZM27.1005 15.5351C27.1005 17.2433 27.5858 18.627 28.5561 19.6865C29.5266 20.746 30.7291 21.2757 32.1635 21.2757C33.5982 21.2757 34.8007 20.746 35.7709 19.6865C36.7414 18.627 37.2266 17.2433 37.2266 15.5351C37.2266 13.8486 36.7414 12.4757 35.7709 11.4162C34.7795 10.3351 33.577 9.7946 32.1635 9.7946C30.7502 9.7946 29.5478 10.3351 28.5561 11.4162C27.5858 12.4757 27.1005 13.8486 27.1005 15.5351ZM43.818 21.4703C43.818 22.0757 43.607 22.5946 43.1851 23.027C42.7842 23.4594 42.2779 23.6757 41.6662 23.6757C41.0754 23.6757 40.5691 23.4594 40.1473 23.027C39.7255 22.5946 39.5144 22.0757 39.5144 21.4703C39.5144 20.8433 39.7255 20.3243 40.1473 19.9135C40.5691 19.4811 41.0754 19.2649 41.6662 19.2649C42.2779 19.2649 42.7842 19.4811 43.1851 19.9135C43.607 20.3243 43.818 20.8433 43.818 21.4703Z" fill="#F9FAFB"/>
</svg>
