<svg width="81" height="84" viewBox="0 0 81 84" fill="none" xmlns="http://www.w3.org/2000/svg">
<path d="M40.4999 83.8919C39.2763 83.8924 38.0742 83.5951 37.0144 83.0301L25.923 76.9647C24.2677 76.1089 25.0743 75.8067 25.6217 75.6301C27.3822 75.1277 29.0678 74.4241 30.6394 73.5355C30.771 73.4793 30.9159 73.455 31.0604 73.465C31.205 73.4749 31.3444 73.5188 31.4654 73.5924L39.9881 78.2694C40.1468 78.3469 40.3236 78.3875 40.5032 78.3875C40.6827 78.3875 40.8595 78.3469 41.0182 78.2694L74.2537 60.5488C74.4092 60.4628 74.5378 60.3408 74.627 60.195C74.7162 60.0492 74.7628 59.8845 74.7622 59.717V24.27C74.7624 24.0998 74.715 23.9326 74.6248 23.7842C74.5346 23.6359 74.4045 23.5115 74.2472 23.4231L41.0117 5.71759C40.855 5.63605 40.6782 5.59322 40.4983 5.59322C40.3184 5.59322 40.1416 5.63605 39.9849 5.71759L6.76884 23.4291C6.6104 23.5157 6.47884 23.6386 6.3869 23.7859C6.29497 23.9332 6.24577 24.0999 6.24407 24.27V59.702C6.24452 59.8691 6.29306 60.0331 6.3847 60.1772C6.47634 60.3212 6.6078 60.4402 6.7656 60.5219L15.8811 65.3814C20.821 67.6616 23.8466 64.9745 23.8466 62.2754V27.2922C23.8466 27.0541 23.9489 26.8258 24.1312 26.6574C24.3134 26.4891 24.5606 26.3945 24.8184 26.3945H29.0295C29.2872 26.3945 29.5344 26.4891 29.7166 26.6574C29.8989 26.8258 30.0013 27.0541 30.0013 27.2922V62.2784C30.0013 68.3678 26.4121 71.8538 20.1602 71.8538C17.4631 71.8972 14.8082 71.2309 12.5057 69.9328L3.76923 65.3036C2.70863 64.7331 1.8286 63.9156 1.21699 62.9326C0.605374 61.9497 0.283574 60.8358 0.283714 59.702V24.27C0.280562 23.1345 0.601001 22.0182 1.21283 21.0334C1.82466 20.0485 2.70632 19.2297 3.76923 18.6594L37.0079 0.932871C38.0786 0.391762 39.2795 0.108154 40.4999 0.108154C41.7204 0.108154 42.9212 0.391762 43.9919 0.932871L77.2274 18.6594C78.2878 19.2288 79.1681 20.0452 79.7803 21.027C80.3924 22.0089 80.7151 23.1219 80.7161 24.255V59.702C80.7143 60.8358 80.3913 61.9493 79.7793 62.932C79.1673 63.9147 78.2875 64.7323 77.2274 65.3036L43.9919 83.0301C42.9302 83.596 41.7257 83.8933 40.4999 83.8919Z" fill="white"/>
<path d="M34.1948 47.8455C34.1948 47.6075 34.2972 47.3791 34.4795 47.2108C34.6617 47.0424 34.9089 46.9478 35.1666 46.9478H39.4652C39.6949 46.9485 39.9169 47.0243 40.0918 47.1618C40.2667 47.2993 40.3833 47.4896 40.4208 47.6989C41.0687 51.7415 43.0123 53.7793 51.8005 53.7793C58.8007 53.7793 61.7841 52.3161 61.7841 48.8839C61.7841 46.9059 60.9387 45.4367 50.0578 44.4522C40.9618 43.6204 35.3383 41.7592 35.3383 35.0444C35.3383 28.8503 40.9909 25.1548 50.4659 25.1548C61.1136 25.1548 66.384 28.569 67.0513 35.8942C67.0615 36.0165 67.0444 36.1394 67.0012 36.2554C66.958 36.3714 66.8895 36.4779 66.7999 36.5685C66.7104 36.6591 66.6017 36.7317 66.4806 36.782C66.3594 36.8323 66.2285 36.8591 66.0957 36.8607H61.7679C61.5508 36.8579 61.341 36.788 61.1719 36.6622C61.0028 36.5364 60.8842 36.3619 60.835 36.1665C59.8017 31.9144 57.2718 30.5559 50.4692 30.5559C42.8244 30.5559 41.9368 33.0156 41.9368 34.8589C41.9368 37.0911 42.9863 37.7435 53.3068 39.0032C63.5204 40.251 68.3729 42.0165 68.3729 48.6475C68.3729 55.3383 62.3348 59.1685 51.8038 59.1685C37.243 59.1864 34.1948 53.0193 34.1948 47.8455Z" fill="white"/>
</svg>
