<svg width="98" height="51" viewBox="0 0 98 51" fill="none" xmlns="http://www.w3.org/2000/svg">
<path d="M0.824219 46.2133H4.07424V32.765L9.1057 44.4887C9.69935 45.9078 10.512 46.4098 12.1056 46.4098C13.6995 46.4098 14.4807 45.9078 15.0746 44.4887L20.1059 32.765V46.2133H23.3561V32.787C23.3561 31.4772 22.8559 30.8439 21.8248 30.5167C19.356 29.7089 17.6996 30.4074 16.9495 32.154L12.0119 43.7244L7.2306 32.154C6.51187 30.4074 4.82432 29.7089 2.35556 30.5167C1.3242 30.8439 0.824219 31.4772 0.824219 32.787V46.2133Z" fill="white"/>
<path d="M26.0576 35.2665H29.3067V42.6755C29.2763 43.0781 29.4299 44.0227 31.2104 44.0522C32.1187 44.067 38.2207 44.0522 38.2777 44.0522V35.2305H41.5343C41.5492 35.2305 41.531 47.2607 41.5313 47.3119C41.5492 50.2789 38.018 50.9233 36.3904 50.9732H26.1282V48.6822C26.1462 48.6822 36.3828 48.6843 36.4086 48.6817C38.5004 48.4501 38.2534 47.3607 38.2531 46.994V46.1008H31.3452C28.1314 46.0698 26.0847 44.6001 26.0594 42.9092C26.0571 42.7524 26.1287 35.3405 26.0576 35.2665Z" fill="white"/>
<path d="M44.04 46.2115H53.3838C54.4776 46.2115 55.5403 45.9715 56.3841 45.5565C57.7902 44.88 58.4778 43.9632 58.4778 42.7621V40.2735C58.4778 39.291 57.6966 38.3739 56.1652 37.7629C55.3525 37.4352 54.3526 37.2607 53.3838 37.2607H49.4461C48.1339 37.2607 47.5088 36.8459 47.3526 35.9291C47.3212 35.8199 47.3212 35.7323 47.3212 35.6233V34.0736C47.3212 33.986 47.3212 33.8985 47.3526 33.7895C47.5088 33.091 47.8527 32.8942 49.0088 32.7852C49.1027 32.7852 49.2274 32.7632 49.3213 32.7632H58.6028V30.4932H49.4775C48.165 30.4932 47.4774 30.5804 46.8525 30.7767C44.9149 31.4099 44.0712 32.4142 44.0712 34.1608V36.1474C44.0712 37.6757 45.7276 38.9855 48.5087 39.291C48.8215 39.3127 49.1338 39.3345 49.4461 39.3345H52.8212C52.9465 39.3345 53.0715 39.3345 53.1651 39.3565C54.1964 39.444 54.6338 39.6402 54.9466 40.0333C55.1339 40.2295 55.1964 40.4263 55.1964 40.6445V42.6311C55.1964 42.8714 55.0402 43.1771 54.7279 43.4389C54.4465 43.7009 53.9778 43.8757 53.3527 43.9194C53.2277 43.9194 53.134 43.9412 53.009 43.9412H44.04V46.2115Z" fill="#E48E00"/>
<path d="M78.7495 42.2601C78.7495 44.5959 80.4057 45.906 83.7496 46.168C84.0619 46.1898 84.3748 46.2115 84.6871 46.2115H93.1562V43.9412H84.6245C82.7183 43.9412 81.9996 43.4389 81.9996 42.2384V30.4932H78.7495V42.2601Z" fill="#E48E00"/>
<path d="M60.5498 42.3798V34.2855C60.5498 32.2292 61.9278 30.982 64.652 30.5882C64.9339 30.5447 65.2472 30.5227 65.5289 30.5227H71.698C72.0111 30.5227 72.2933 30.5447 72.6063 30.5882C75.3308 30.982 76.7085 32.2292 76.7085 34.2855V42.3798C76.7085 44.0481 76.1234 44.9411 74.7748 45.5229L77.9762 48.5509H74.2025L71.6125 46.101L69.005 46.2742H65.5289C64.9339 46.2742 64.3078 46.1864 63.6187 45.9896C61.552 45.399 60.5498 44.2614 60.5498 42.3798ZM64.0578 42.183C64.0578 42.2926 64.0889 42.4018 64.1203 42.5331C64.3081 43.4737 65.1536 43.9988 66.4375 43.9988H69.3902L66.6779 41.4331H70.4516L72.8172 43.6708C73.253 43.4273 73.54 43.055 73.6402 42.5768C73.6713 42.4676 73.6713 42.3581 73.6713 42.2488V34.4826C73.6713 34.3951 73.6713 34.2855 73.6402 34.176C73.4521 33.3011 72.6066 32.7981 71.3541 32.7981H66.4375C64.9972 32.7981 64.0578 33.4544 64.0578 34.4826V42.183Z" fill="#E48E00"/>
<path d="M94.2775 29.8423C92.2797 29.7855 90.7536 29.9802 89.449 30.5567C89.0782 30.7206 88.487 30.7248 88.4265 31.2117C88.6303 31.4356 88.6619 31.7697 88.8239 32.045C89.1354 32.5732 89.6613 33.281 90.1305 33.6523C90.6433 34.0578 91.1717 34.4917 91.7214 34.8428C92.6991 35.4676 93.7906 35.8243 94.7321 36.4501C95.2868 36.819 95.838 37.2836 96.3794 37.7C96.6469 37.9058 96.8268 38.2259 97.1745 38.3547C97.1745 38.3351 97.1745 38.3152 97.1745 38.2953C96.9918 38.0516 96.9447 37.7164 96.777 37.4618C96.531 37.2041 96.2847 36.946 96.0385 36.688C95.3164 35.6837 94.3998 34.8017 93.4254 34.0689C92.6484 33.4844 90.9093 32.695 90.5851 31.7474C90.5661 31.7275 90.5474 31.7076 90.5281 31.6878C91.0791 31.6228 91.7242 31.4138 92.2326 31.2711C93.0868 31.0311 93.8501 31.0932 94.7321 30.8545C95.1297 30.7354 95.5272 30.6161 95.9251 30.4973C95.9251 30.4177 95.9251 30.3387 95.9251 30.2592C95.4792 29.7797 95.1613 29.1453 94.6751 28.7115C93.4031 27.5765 92.0147 26.4425 90.5851 25.4969C89.7922 24.9725 88.8122 24.6317 87.972 24.1872C87.6893 24.0378 87.1928 23.9601 87.006 23.711C86.5646 23.1213 86.3242 22.3739 85.9838 21.687C85.2706 20.2482 84.5703 18.6767 83.9386 17.163C83.5076 16.1307 83.2262 15.1126 82.6889 14.1865C80.1095 9.74269 77.333 7.06044 73.0318 4.42403C72.1167 3.86336 71.0148 3.64192 69.8504 3.35265C69.2258 3.31303 68.6006 3.27314 67.9758 3.23352C67.5944 3.06648 67.1976 2.57751 66.8397 2.34056C65.4149 1.39735 61.7601 -0.654279 60.7048 2.04299C60.0384 3.74551 61.7006 5.40687 62.2951 6.26952C62.7125 6.87475 63.2467 7.55327 63.5448 8.23387C63.741 8.68114 63.7749 9.12969 63.9427 9.60309C64.3557 10.769 64.7148 12.0375 65.2491 13.1151C65.5191 13.6603 65.8168 14.2347 66.1582 14.7223C66.3675 15.0215 66.7261 15.1533 66.7828 15.6153C66.432 16.1296 66.412 16.928 66.2148 17.5797C65.327 20.5131 65.6619 24.1593 66.9533 26.3303C67.3497 26.9967 68.283 28.4261 69.5664 27.878C70.6891 27.3988 70.4383 25.9139 70.7594 24.6039C70.8321 24.3069 70.7875 24.0886 70.9298 23.8897C70.9298 23.9093 70.9298 23.9293 70.9298 23.9492C71.2707 24.6635 71.6116 25.3778 71.9525 26.0919C72.7092 27.3691 74.0523 28.7038 75.1904 29.6044C75.7806 30.0714 76.2452 30.8789 77.0083 31.1521C77.0083 31.1322 77.0083 31.1126 77.0083 31.0924C76.989 31.0924 76.9703 31.0924 76.9513 31.0924C76.8035 30.8508 76.5722 30.7508 76.3834 30.5567C75.9387 30.1 75.4445 29.5323 75.0767 29.009C74.0416 27.5364 73.1268 25.9246 72.2934 24.2468C71.8953 23.4458 71.5493 22.5619 71.2137 21.7466C71.0844 21.4322 71.0859 20.957 70.8164 20.7941C70.4489 21.3916 69.9076 21.8746 69.6234 22.58C69.1688 23.7076 69.1101 25.0828 68.9418 26.5088C68.8421 26.5462 68.8864 26.5204 68.8279 26.5682C68.0368 26.3682 67.7586 25.5147 67.4648 24.7826C66.721 22.9309 66.5828 19.9493 67.2373 17.8179C67.4066 17.2665 68.1719 15.5296 67.8622 15.0202C67.7144 14.5118 67.2264 14.2178 66.9533 13.8294C66.6155 13.3492 66.2781 12.7171 66.0443 12.1626C65.4356 10.7188 65.1514 9.09808 64.5106 7.63874C64.2044 6.94104 63.6863 6.23507 63.2609 5.61483C62.7899 4.92777 62.2625 4.4217 61.8975 3.59066C61.7677 3.29542 61.5913 2.82276 61.7839 2.51925C61.8451 2.31439 61.9314 2.22894 62.1248 2.16211C62.4543 1.89588 63.372 2.25069 63.7152 2.40012C64.6263 2.79661 65.3865 3.1742 66.1582 3.70978C66.5287 3.96721 66.9032 4.46495 67.3509 4.60275C67.5213 4.60275 67.6918 4.60275 67.8622 4.60275C68.6619 4.79541 69.5578 4.66257 70.3049 4.90029C71.6255 5.32089 72.8089 5.97507 73.8837 6.68622C77.1581 8.85259 79.8352 11.9365 81.6665 15.6153C81.9611 16.2076 82.0886 16.7729 82.348 17.4012C82.8717 18.6681 83.5312 19.9718 84.052 21.2108C84.5719 22.4469 85.0785 23.6944 85.8132 24.7231C86.1997 25.2638 87.6916 25.5539 88.3696 25.854C88.8449 26.0646 89.6236 26.2839 90.0738 26.5682C90.9338 27.1118 91.767 27.7589 92.5735 28.3543C92.9767 28.6518 94.2158 29.3045 94.2775 29.8423Z" fill="white"/>
</svg>
