<svg width="165" height="34" viewBox="0 0 165 34" fill="none" xmlns="http://www.w3.org/2000/svg">
<path d="M4.4565 26.7055C3.33067 26.7055 2.38175 26.3356 1.60975 25.5958C0.869917 24.8559 0.5 23.907 0.5 22.749C0.5 21.591 0.869917 20.6582 1.60975 19.9505C2.38175 19.2107 3.33067 18.8408 4.4565 18.8408C5.58233 18.8408 6.51517 19.2107 7.255 19.9505C8.027 20.6903 8.413 21.6232 8.413 22.749C8.413 23.907 8.027 24.8559 7.255 25.5958C6.51517 26.3356 5.58233 26.7055 4.4565 26.7055Z" fill="#FFC36A"/>
<path d="M13.487 33.9635V0.036499H16.8087V33.9635H13.487Z" fill="#FFC36A"/>
<path d="M28.8086 29.1138L33.6583 12.1396H38.2656L43.0911 29.1138H40.3995L39.2841 25.1127H32.6399L31.5245 29.1138H28.8086ZM33.2946 22.6879H38.6293L36.156 13.7643H35.768L33.2946 22.6879Z" fill="#111827"/>
<path d="M51.0165 29.4533C49.8687 29.4533 48.826 29.2108 47.8884 28.7258C46.9669 28.2408 46.2314 27.5376 45.6817 26.6162C45.1483 25.6947 44.8815 24.5873 44.8815 23.2941V22.9788C44.8815 21.6856 45.1483 20.5863 45.6817 19.681C46.2314 18.7596 46.9669 18.0563 47.8884 17.5714C48.826 17.0702 49.8687 16.8197 51.0165 16.8197C52.1642 16.8197 53.1423 17.0298 53.9506 17.4501C54.7589 17.8704 55.4055 18.4282 55.8905 19.1233C56.3916 19.8184 56.7149 20.5863 56.8604 21.4269L54.4355 21.9361C54.3547 21.4027 54.185 20.9177 53.9263 20.4812C53.6677 20.0447 53.3039 19.6972 52.8351 19.4385C52.3663 19.1799 51.7763 19.0505 51.065 19.0505C50.3698 19.0505 49.7394 19.2122 49.1736 19.5355C48.6239 19.8427 48.1875 20.2953 47.8641 20.8934C47.5408 21.4754 47.3792 22.1867 47.3792 23.0273V23.2456C47.3792 24.0862 47.5408 24.8056 47.8641 25.4037C48.1875 26.0019 48.6239 26.4545 49.1736 26.7616C49.7394 27.0688 50.3698 27.2224 51.065 27.2224C52.1157 27.2224 52.916 26.9556 53.4656 26.4222C54.0152 25.8725 54.3628 25.1774 54.5083 24.3368L56.9332 24.8945C56.7392 25.719 56.3916 26.4787 55.8905 27.1739C55.4055 27.869 54.7589 28.4267 53.9506 28.847C53.1423 29.2512 52.1642 29.4533 51.0165 29.4533Z" fill="#111827"/>
<path d="M59.8138 29.1138V12.1396H62.3115V18.8566H62.6994C62.8611 18.5494 63.0874 18.2503 63.3784 17.9593C63.6856 17.6684 64.0816 17.434 64.5666 17.2561C65.0677 17.0621 65.6982 16.9651 66.458 16.9651C67.3633 16.9651 68.1635 17.1672 68.8586 17.5714C69.5699 17.9755 70.1276 18.5494 70.5318 19.293C70.9359 20.0205 71.138 20.9015 71.138 21.9361V29.1138H68.6404V22.1301C68.6404 21.0955 68.3817 20.3357 67.8644 19.8508C67.3471 19.3496 66.6358 19.099 65.7305 19.099C64.6959 19.099 63.8634 19.4385 63.2329 20.1175C62.6186 20.7965 62.3115 21.7826 62.3115 23.0758V29.1138H59.8138Z" fill="#111827"/>
<path d="M78.887 29.1138C78.1595 29.1138 77.5776 28.8955 77.1411 28.4591C76.7208 28.0226 76.5106 27.4406 76.5106 26.7131V19.2688H73.2128V17.1591H76.5106V13.2066H79.0082V17.1591H82.5728V19.2688H79.0082V26.2767C79.0082 26.7616 79.2346 27.0041 79.6872 27.0041H82.1848V29.1138H78.887Z" fill="#111827"/>
<path d="M90.5611 29.4533C89.3486 29.4533 88.2898 29.2027 87.3845 28.7015C86.4792 28.1842 85.7679 27.4649 85.2506 26.5434C84.7495 25.6058 84.4989 24.5227 84.4989 23.2941V23.0031C84.4989 21.7583 84.7495 20.6752 85.2506 19.7538C85.7517 18.8161 86.4469 18.0968 87.336 17.5956C88.2413 17.0783 89.284 16.8197 90.4641 16.8197C91.6118 16.8197 92.6141 17.0783 93.4709 17.5956C94.3439 18.0968 95.0228 18.8 95.5078 19.7053C95.9928 20.6105 96.2353 21.6694 96.2353 22.8818V23.8275H87.045C87.0773 24.8783 87.4249 25.7189 88.0877 26.3494C88.7667 26.9637 89.6073 27.2709 90.6096 27.2709C91.5472 27.2709 92.2504 27.0607 92.7192 26.6404C93.2042 26.2201 93.576 25.7351 93.8346 25.1855L95.8958 26.2524C95.6695 26.7051 95.3381 27.182 94.9016 27.6831C94.4813 28.1842 93.9236 28.6046 93.2284 28.944C92.5333 29.2835 91.6442 29.4533 90.5611 29.4533ZM87.0692 21.9119H93.6892C93.6245 21.0066 93.3012 20.3034 92.7192 19.8023C92.1372 19.2849 91.3774 19.0263 90.4398 19.0263C89.5022 19.0263 88.7343 19.2849 88.1362 19.8023C87.5542 20.3034 87.1986 21.0066 87.0692 21.9119Z" fill="#111827"/>
<path d="M99.2417 29.1138V17.1591H101.691V18.9535H102.079C102.305 18.4686 102.709 18.0159 103.291 17.5956C103.873 17.1753 104.738 16.9651 105.886 16.9651C106.791 16.9651 107.591 17.1672 108.287 17.5714C108.998 17.9755 109.556 18.5494 109.96 19.293C110.364 20.0205 110.566 20.9015 110.566 21.9361V29.1138H108.068V22.1301C108.068 21.0955 107.81 20.3357 107.292 19.8508C106.775 19.3496 106.064 19.099 105.158 19.099C104.124 19.099 103.291 19.4385 102.661 20.1175C102.047 20.7965 101.739 21.7826 101.739 23.0758V29.1138H99.2417Z" fill="#111827"/>
<path d="M121.071 29.4533C119.907 29.4533 119.01 29.2431 118.38 28.8228C117.765 28.4025 117.305 27.9337 116.998 27.4164H116.61V29.1138H114.16V12.1396H116.658V18.7838H117.046C117.24 18.4605 117.499 18.1533 117.822 17.8624C118.145 17.5552 118.574 17.3046 119.107 17.1106C119.641 16.9167 120.295 16.8197 121.071 16.8197C122.074 16.8197 122.995 17.0621 123.836 17.5471C124.676 18.0321 125.347 18.7353 125.848 19.6568C126.349 20.5782 126.6 21.6775 126.6 22.9546V23.3183C126.6 24.6116 126.341 25.7189 125.824 26.6404C125.323 27.5457 124.652 28.2408 123.811 28.7258C122.987 29.2108 122.074 29.4533 121.071 29.4533ZM120.344 27.2709C121.427 27.2709 122.316 26.9233 123.011 26.2282C123.723 25.533 124.078 24.5388 124.078 23.2456V23.0273C124.078 21.7502 123.731 20.7641 123.035 20.069C122.34 19.3739 121.443 19.0263 120.344 19.0263C119.277 19.0263 118.388 19.3739 117.676 20.069C116.981 20.7641 116.634 21.7502 116.634 23.0273V23.2456C116.634 24.5388 116.981 25.533 117.676 26.2282C118.388 26.9233 119.277 27.2709 120.344 27.2709Z" fill="#111827"/>
<path d="M135.175 29.4533C133.963 29.4533 132.904 29.2027 131.998 28.7015C131.093 28.1842 130.382 27.4649 129.865 26.5434C129.363 25.6058 129.113 24.5227 129.113 23.2941V23.0031C129.113 21.7583 129.363 20.6752 129.865 19.7538C130.366 18.8161 131.061 18.0968 131.95 17.5956C132.855 17.0783 133.898 16.8197 135.078 16.8197C136.226 16.8197 137.228 17.0783 138.085 17.5956C138.958 18.0968 139.637 18.8 140.122 19.7053C140.607 20.6105 140.849 21.6694 140.849 22.8818V23.8275H131.659C131.691 24.8783 132.039 25.7189 132.702 26.3494C133.381 26.9637 134.221 27.2709 135.223 27.2709C136.161 27.2709 136.864 27.0607 137.333 26.6404C137.818 26.2201 138.19 25.7351 138.449 25.1855L140.51 26.2524C140.283 26.7051 139.952 27.182 139.516 27.6831C139.095 28.1842 138.537 28.6046 137.842 28.944C137.147 29.2835 136.258 29.4533 135.175 29.4533ZM131.683 21.9119H138.303C138.238 21.0066 137.915 20.3034 137.333 19.8023C136.751 19.2849 135.991 19.0263 135.054 19.0263C134.116 19.0263 133.348 19.2849 132.75 19.8023C132.168 20.3034 131.812 21.0066 131.683 21.9119Z" fill="#111827"/>
<path d="M143.856 29.1138V17.1591H146.305V18.5656H146.693C146.887 18.0644 147.194 17.7007 147.614 17.4744C148.051 17.2319 148.584 17.1106 149.215 17.1106H150.645V19.3658H149.118C148.309 19.3658 147.647 19.5921 147.129 20.0447C146.612 20.4812 146.353 21.1602 146.353 22.0816V29.1138H143.856Z" fill="#111827"/>
<path d="M152.225 23.1971V22.8333C152.225 21.5724 152.475 20.4974 152.977 19.6083C153.494 18.7191 154.173 18.0321 155.013 17.5471C155.854 17.0621 156.776 16.8197 157.778 16.8197C158.942 16.8197 159.831 17.0379 160.445 17.4744C161.076 17.9109 161.536 18.3797 161.827 18.8808H162.215V17.1591H164.64V31.5629C164.64 32.2904 164.422 32.8723 163.986 33.3088C163.565 33.7453 162.983 33.9635 162.24 33.9635H154.189V31.7811H161.464C161.932 31.7811 162.167 31.5387 162.167 31.0537V27.2466H161.779C161.601 27.5376 161.351 27.8367 161.027 28.1438C160.704 28.451 160.275 28.7015 159.742 28.8955C159.225 29.0895 158.57 29.1865 157.778 29.1865C156.776 29.1865 155.846 28.9521 154.989 28.4833C154.149 27.9983 153.478 27.3113 152.977 26.4222C152.475 25.5169 152.225 24.4418 152.225 23.1971ZM158.457 27.0041C159.54 27.0041 160.429 26.6646 161.124 25.9857C161.835 25.2906 162.191 24.3368 162.191 23.1243V22.9061C162.191 21.6613 161.844 20.7075 161.148 20.0447C160.453 19.3658 159.556 19.0263 158.457 19.0263C157.39 19.0263 156.501 19.3658 155.789 20.0447C155.094 20.7075 154.747 21.6613 154.747 22.9061V23.1243C154.747 24.3368 155.094 25.2906 155.789 25.9857C156.501 26.6646 157.39 27.0041 158.457 27.0041Z" fill="#111827"/>
</svg>
