<svg width="84" height="76" viewBox="0 0 84 76" fill="none" xmlns="http://www.w3.org/2000/svg">
<path d="M83.8917 38.0087C83.8917 32.3995 76.941 27.0836 66.2845 23.7871C68.7437 12.8103 67.6507 4.07713 62.8347 1.28114C61.7247 0.625287 60.4268 0.314622 59.0093 0.314622V4.16342C59.7949 4.16342 60.4268 4.31875 60.9562 4.61216C63.2788 5.95838 64.2864 11.0844 63.5008 17.6774C63.3129 19.2997 63.0055 21.0084 62.6298 22.7516C59.2826 21.9231 55.6279 21.2845 51.7854 20.8703C49.4799 17.6774 47.089 14.7778 44.681 12.2407C50.2484 7.01119 55.4742 4.14616 59.0264 4.14616V0.297363C54.33 0.297363 48.182 3.68017 41.9656 9.54829C35.7493 3.71468 29.6013 0.3664 24.9049 0.3664V4.2152C28.44 4.2152 33.6829 7.06297 39.2503 12.258C36.8594 14.7951 34.4685 17.6774 32.1971 20.8703C28.3375 21.2845 24.6829 21.9231 21.3356 22.7688C20.9429 21.0429 20.6525 19.3688 20.4476 17.7637C19.6449 11.1707 20.6354 6.04467 22.941 4.6812C23.4533 4.37053 24.1193 4.23246 24.9049 4.23246V0.383659C23.4704 0.383659 22.1725 0.694324 21.0453 1.35017C16.2464 4.14616 15.1705 12.8621 17.6468 23.8044C7.02443 27.1181 0.10791 32.4167 0.10791 38.0087C0.10791 43.6179 7.05858 48.9338 17.7151 52.2303C15.2559 63.2071 16.3489 71.9403 21.1649 74.7362C22.2749 75.3921 23.5728 75.7028 25.0074 75.7028C29.7038 75.7028 35.8518 72.32 42.0681 66.4518C48.2844 72.2854 54.4325 75.6337 59.1289 75.6337C60.5634 75.6337 61.8613 75.3231 62.9884 74.6672C67.7873 71.8712 68.8632 63.1553 66.3869 52.213C76.9752 48.9165 83.8917 43.6007 83.8917 38.0087ZM61.6564 26.4968C61.0245 28.7232 60.2389 31.0187 59.3509 33.3142C58.6507 31.9335 57.9163 30.5527 57.1137 29.172C56.3281 27.7913 55.4913 26.445 54.6545 25.1333C57.0795 25.4958 59.4192 25.9445 61.6564 26.4968ZM53.8347 44.8778C52.5027 47.2078 51.1364 49.417 49.719 51.4709C47.1744 51.6952 44.5956 51.816 41.9998 51.816C39.4211 51.816 36.8423 51.6952 34.3148 51.4881C32.8973 49.4343 31.514 47.2424 30.1819 44.9296C28.884 42.6687 27.7057 40.3732 26.6298 38.0605C27.6886 35.7477 28.884 33.435 30.1649 31.1741C31.4969 28.8441 32.8632 26.6349 34.2806 24.581C36.8252 24.3567 39.404 24.2359 41.9998 24.2359C44.5786 24.2359 47.1573 24.3567 49.6848 24.5638C51.1023 26.6176 52.4856 28.8095 53.8177 31.1223C55.1156 33.3832 56.2939 35.6787 57.3698 37.9914C56.2939 40.3042 55.1156 42.6169 53.8347 44.8778ZM59.3509 42.6342C60.2731 44.9469 61.0587 47.2596 61.7076 49.5033C59.4704 50.0556 57.1137 50.5216 54.6715 50.884C55.5084 49.5551 56.3452 48.1916 57.1308 46.7936C57.9163 45.4129 58.6507 44.0149 59.3509 42.6342ZM42.034 61.0497C40.4457 59.3928 38.8575 57.5461 37.2863 55.5268C38.8233 55.5958 40.3945 55.6476 41.9827 55.6476C43.588 55.6476 45.1763 55.6131 46.7304 55.5268C45.1934 57.5461 43.6051 59.3928 42.034 61.0497ZM29.3281 50.884C26.903 50.5216 24.5633 50.0729 22.3262 49.5206C22.958 47.2941 23.7436 44.9987 24.6317 42.7032C25.3318 44.0839 26.0662 45.4647 26.8689 46.8454C27.6715 48.2261 28.4912 49.5724 29.3281 50.884ZM41.9486 14.9677C43.5368 16.6246 45.125 18.4713 46.6962 20.4906C45.1592 20.4216 43.588 20.3698 41.9998 20.3698C40.3945 20.3698 38.8063 20.4043 37.2522 20.4906C38.7892 18.4713 40.3774 16.6246 41.9486 14.9677ZM29.311 25.1333C28.4742 26.4623 27.6374 27.8258 26.8518 29.2238C26.0662 30.6045 25.3318 31.9852 24.6317 33.366C23.7095 31.0532 22.9239 28.7405 22.2749 26.4968C24.5121 25.9618 26.8689 25.4958 29.311 25.1333ZM13.8556 46.7418C7.81001 44.1357 3.89919 40.7184 3.89919 38.0087C3.89919 35.299 7.81001 31.8644 13.8556 29.2755C15.3243 28.637 16.9296 28.0674 18.5861 27.5324C19.5595 30.9152 20.8404 34.436 22.4286 38.0432C20.8575 41.6331 19.5937 45.1367 18.6373 48.5023C16.9466 47.9672 15.3413 47.3804 13.8556 46.7418ZM23.0434 71.4052C20.7208 70.059 19.7132 64.933 20.4988 58.34C20.6867 56.7177 20.9941 55.009 21.3698 53.2658C24.7171 54.0943 28.3717 54.7328 32.2142 55.1471C34.5197 58.34 36.9106 61.2396 39.3186 63.7767C33.7512 69.0062 28.5254 71.8712 24.9732 71.8712C24.2047 71.854 23.5558 71.6986 23.0434 71.4052ZM63.552 58.2537C64.3547 64.8467 63.3641 69.9727 61.0586 71.3362C60.5463 71.6469 59.8803 71.7849 59.0947 71.7849C55.5596 71.7849 50.3167 68.9372 44.7493 63.7421C47.1402 61.205 49.5311 58.3228 51.8025 55.1298C55.6621 54.7156 59.3167 54.077 62.664 53.2313C63.0568 54.9745 63.3642 56.6486 63.552 58.2537ZM70.127 46.7418C68.6583 47.3804 67.053 47.95 65.3964 48.485C64.423 45.1022 63.1421 41.5813 61.5539 37.9742C63.1251 34.3843 64.3888 30.8806 65.3452 27.5151C67.0359 28.0501 68.6412 28.637 70.144 29.2755C76.1896 31.8817 80.1004 35.299 80.1004 38.0087C80.0833 40.7184 76.1725 44.153 70.127 46.7418Z" fill="white"/>
<path d="M41.9818 45.8957C46.2922 45.8957 49.7864 42.3644 49.7864 38.0083C49.7864 33.6522 46.2922 30.1208 41.9818 30.1208C37.6715 30.1208 34.1772 33.6522 34.1772 38.0083C34.1772 42.3644 37.6715 45.8957 41.9818 45.8957Z" fill="white"/>
</svg>
